HIERARCHY
ROOT hip
{
  OFFSET 0 0 0
  CHANNELS 6 Xposition Yposition Zposition Zrotation Yrotation Xrotation
  JOINT abdomen
  {
    OFFSET 0 20.6881 -0.73152
    CHANNELS 3 Zrotation Xrotation Yrotation
    JOINT chest
    {
      OFFSET 0 11.7043 -0.48768
      CHANNELS 3 Zrotation Xrotation Yrotation
      JOINT neck
      {
        OFFSET 0 22.1894 -2.19456
        CHANNELS 3 Zrotation Xrotation Yrotation
        JOINT head
        {
          OFFSET -0.24384 7.07133 1.2192
          CHANNELS 3 Zrotation Xrotation Yrotation
          JOINT leftEye
          {
            OFFSET 4.14528 8.04674 8.04672
            CHANNELS 3 Zrotation Xrotation Yrotation
            End Site
            {
              OFFSET 1 0 0
            }
          }
          JOINT rightEye
          {
            OFFSET -3.6576 8.04674 8.04672
            CHANNELS 3 Zrotation Xrotation Yrotation
            End Site
            {
              OFFSET 1 0 0
            }
          }
        }
      }
      JOINT rCollar
      {
        OFFSET -2.68224 19.2634 -4.8768
        CHANNELS 3 Zrotation Xrotation Yrotation
        JOINT rShldr
        {
          OFFSET -8.77824 -1.95073 1.46304
          CHANNELS 3 Zrotation Xrotation Yrotation
          JOINT rForeArm
          {
            OFFSET -28.1742 -1.7115 0.48768
            CHANNELS 3 Zrotation Xrotation Yrotation
            JOINT rHand
            {
              OFFSET -22.5879 0.773209 7.07136
              CHANNELS 3 Zrotation Xrotation Yrotation
              JOINT rThumb1
              {
                OFFSET -1.2192 -0.487915 3.41376
                CHANNELS 3 Zrotation Xrotation Yrotation
                JOINT rThumb2
                {
                  OFFSET -3.37035 -0.52449 3.41376
                  CHANNELS 3 Zrotation Xrotation Yrotation
                  End Site
                  {
                    OFFSET -1.78271 -1.18214 1.43049
                  }
                }
              }
              JOINT rIndex1
              {
                OFFSET -7.75947 0.938293 5.60832
                CHANNELS 3 Zrotation Xrotation Yrotation
                JOINT rIndex2
                {
                  OFFSET -2.54057 -0.884171 1.56538
                  CHANNELS 3 Zrotation Xrotation Yrotation
                  End Site
                  {
                    OFFSET -1.62519 -0.234802 1.16502
                  }
                }
              }
              JOINT rMid1
              {
                OFFSET -8.24714 1.18213 3.41376
                CHANNELS 3 Zrotation Xrotation Yrotation
                JOINT rMid2
                {
                  OFFSET -3.10165 -0.590103 1.0647
                  CHANNELS 3 Zrotation Xrotation Yrotation
                  End Site
                  {
                    OFFSET -2.48547 -0.328903 0.83742
                  }
                }
              }
              JOINT rRing1
              {
                OFFSET -8.82822 0.546677 1.51678
                CHANNELS 3 Zrotation Xrotation Yrotation
                JOINT rRing2
                {
                  OFFSET -2.60934 -0.819778 -0.0198488
                  CHANNELS 3 Zrotation Xrotation Yrotation
                  End Site
                  {
                    OFFSET -2.33842 -0.294052 0.168128
                  }
                }
              }
              JOINT rPinky1
              {
                OFFSET -8.27202 -0.0477905 -0.4584
                CHANNELS 3 Zrotation Xrotation Yrotation
                JOINT rPinky2
                {
                  OFFSET -1.82734 -0.647385 -0.700984
                  CHANNELS 3 Zrotation Xrotation Yrotation
                  End Site
                  {
                    OFFSET -1.69225 -0.51767 -0.607171
                  }
                }
              }
            }
          }
        }
      }
      JOINT lCollar
      {
        OFFSET 2.68224 19.2634 -4.8768
        CHANNELS 3 Zrotation Xrotation Yrotation
        JOINT lShldr
        {
          OFFSET 8.77824 -1.95073 1.46304
          CHANNELS 3 Zrotation Xrotation Yrotation
          JOINT lForeArm
          {
            OFFSET 28.1742 -1.7115 0.48768
            CHANNELS 3 Zrotation Xrotation Yrotation
            JOINT lHand
            {
              OFFSET 22.5879 0.773209 7.07136
              CHANNELS 3 Zrotation Xrotation Yrotation
              JOINT lThumb1
              {
                OFFSET 1.2192 -0.487915 3.41376
                CHANNELS 3 Zrotation Xrotation Yrotation
                JOINT lThumb2
                {
                  OFFSET 3.37035 -0.52449 3.41376
                  CHANNELS 3 Zrotation Xrotation Yrotation
                  End Site
                  {
                    OFFSET 1.78271 -1.18214 1.43049
                  }
                }
              }
              JOINT lIndex1
              {
                OFFSET 7.75947 0.938293 5.60832
                CHANNELS 3 Zrotation Xrotation Yrotation
                JOINT lIndex2
                {
                  OFFSET 2.54057 -0.884171 1.56538
                  CHANNELS 3 Zrotation Xrotation Yrotation
                  End Site
                  {
                    OFFSET 1.62519 -0.234802 1.16502
                  }
                }
              }
              JOINT lMid1
              {
                OFFSET 8.24714 1.18213 3.41376
                CHANNELS 3 Zrotation Xrotation Yrotation
                JOINT lMid2
                {
                  OFFSET 3.10165 -0.590103 1.0647
                  CHANNELS 3 Zrotation Xrotation Yrotation
                  End Site
                  {
                    OFFSET 2.48547 -0.328903 0.83742
                  }
                }
              }
              JOINT lRing1
              {
                OFFSET 8.82822 0.546677 1.51678
                CHANNELS 3 Zrotation Xrotation Yrotation
                JOINT lRing2
                {
                  OFFSET 2.60934 -0.819778 -0.0198488
                  CHANNELS 3 Zrotation Xrotation Yrotation
                  End Site
                  {
                    OFFSET 2.33842 -0.294052 0.168128
                  }
                }
              }
              JOINT lPinky1
              {
                OFFSET 8.27202 -0.0477905 -0.4584
                CHANNELS 3 Zrotation Xrotation Yrotation
                JOINT lPinky2
                {
                  OFFSET 1.82734 -0.647385 -0.700984
                  CHANNELS 3 Zrotation Xrotation Yrotation
                  End Site
                  {
                    OFFSET 1.69225 -0.51767 -0.607171
                  }
                }
              }
            }
          }
        }
      }
    }
  }
  JOINT rButtock
  {
    OFFSET -8.77824 4.35084 1.2192
    CHANNELS 3 Zrotation Xrotation Yrotation
    JOINT rThigh
    {
      OFFSET 0 -1.70687 -2.19456
      CHANNELS 3 Zrotation Xrotation Yrotation
      JOINT rShin
      {
        OFFSET 0 -36.8199 0.73152
        CHANNELS 3 Zrotation Xrotation Yrotation
        JOINT rFoot
        {
          OFFSET 0.73152 -45.1104 -5.12064
          CHANNELS 3 Zrotation Xrotation Yrotation
          End Site
          {
            OFFSET -1.1221 -3.69964 12.103
          }
        }
      }
    }
  }
  JOINT lButtock
  {
    OFFSET 8.77824 4.35084 1.2192
    CHANNELS 3 Zrotation Xrotation Yrotation
    JOINT lThigh
    {
      OFFSET 0 -1.70687 -2.19456
      CHANNELS 3 Zrotation Xrotation Yrotation
      JOINT lShin
      {
        OFFSET 0 -36.8199 0.73152
        CHANNELS 3 Zrotation Xrotation Yrotation
        JOINT lFoot
        {
          OFFSET -0.73152 -45.1104 -5.12064
          CHANNELS 3 Zrotation Xrotation Yrotation
          End Site
          {
            OFFSET 1.1221 -3.69964 12.103
          }
        }
      }
    }
  }
}
MOTION
Frames:	7
Frame Time:	0.00833333
11.628 85.9663 -27.3004 -0.3162 -28.0175 8.7938 -0.337051 15.2455 3.9492 0.0318771 -6.01795 1.06871 -6.17491 -7.10082 3.79898 -3.12035 -4.35659 9.86557 -0.0 0.0 0.0 -0.0 0.0 0.0 2.05193e-13 1.11324e-13 -2.7969e-13 63.9781 46.5821 12.4693 24.3559 -48.9252 -102.139 -0.14605 10.8301 1.54064 2.2795e-10 4.12942e-09 6.99022e-10 4.02162e-10 7.14545e-09 1.20631e-09 2.27951e-10 4.12943e-09 6.99019e-10 7.73091 5.47488 0.417314 2.27948e-10 4.12941e-09 6.99022e-10 2.90554 0.965183 0.102902 2.27958e-10 4.12943e-09 6.99028e-10 10.2786 0.731801 0.0259123 2.27954e-10 4.12942e-09 6.99032e-10 2.22167 -0.733487 -0.20892 2.05062e-13 1.11315e-13 -2.80038e-13 -66.1194 24.6369 -23.1398 23.0875 -50.491 -106.054 0.0254492 4.5492 -0.640708 2.93433e-10 -5.32886e-10 5.7216e-10 5.07327e-10 -9.22106e-10 9.89052e-10 2.93426e-10 -5.32893e-10 5.72179e-10 -7.73091 5.47488 -0.417314 2.93433e-10 -5.32891e-10 5.72156e-10 -2.90554 0.965183 -0.102902 2.93432e-10 -5.32891e-10 5.72156e-10 -10.2786 0.731801 -0.0259123 2.93441e-10 -5.32888e-10 5.7215e-10 -2.22167 -0.733487 0.20892 -2.03217e-16 0.0 -3.88251e-19 -15.7458 -32.9757 -3.78983 -0.391291 41.5988 0.672729 -0.319587 4.59017 3.05523 2.03217e-16 0.0 3.88251e-19 15.4924 -31.2656 0.398647 0.406333 45.9918 -1.11999 0.180932 5.68295 -11.4865
10.9353 85.8125 -27.5312 -0.3495 -27.324 8.5596 -0.234404 15.2166 3.62786 0.0637948 -6.02687 0.974318 -6.36391 -6.90801 3.64901 -2.67232 -4.15327 9.63534 -0.0 0.0 0.0 -0.0 0.0 0.0 2.11746e-13 1.47798e-13 -4.23684e-13 64.5286 46.231 12.1244 24.4392 -48.812 -101.865 -0.124776 10.1378 1.43948 6.04138e-12 5.79533e-09 1.1489e-09 2.32774e-11 1.00386e-08 1.98477e-09 6.04185e-12 5.79533e-09 1.1489e-09 7.73091 5.47488 0.417314 6.0404e-12 5.79532e-09 1.1489e-09 2.90554 0.965183 0.102902 6.04884e-12 5.79533e-09 1.14891e-09 10.2786 0.731801 0.0259123 6.04319e-12 5.79533e-09 1.14891e-09 2.22167 -0.733487 -0.20892 2.11634e-13 1.47794e-13 -4.24012e-13 -65.8165 24.9288 -23.4522 23.1477 -50.4235 -105.878 0.0331503 5.38749 -0.75914 8.60203e-11 -3.0679e-10 1.00323e-09 1.49199e-10 -5.29691e-10 1.73763e-09 8.60123e-11 -3.06792e-10 1.00325e-09 -7.73091 5.47488 -0.417314 8.60208e-11 -3.06792e-10 1.00323e-09 -2.90554 0.965183 -0.102902 8.60194e-11 -3.06793e-10 1.00323e-09 -10.2786 0.731801 -0.0259123 8.60288e-11 -3.06791e-10 1.00322e-09 -2.22167 -0.733487 0.20892 -2.03217e-16 0.0 -3.88251e-19 -15.9987 -32.4008 -3.78591 -0.432584 43.2613 0.70508 -0.308506 3.81738 2.48682 2.03217e-16 0.0 3.88251e-19 15.0661 -31.4987 0.69702 0.384842 45.2264 -1.0795 0.0826039 5.19528 -13.385
10.2443 85.5974 -27.7193 -0.4432 -26.7083 8.3467 -0.120496 15.1533 3.39067 0.0987878 -6.04212 0.903553 -6.66754 -6.76725 3.43811 -2.08114 -3.80119 9.34234 -0.0 0.0 0.0 -0.0 0.0 0.0 2.23793e-13 2.42518e-13 -5.48916e-13 65.2775 45.9069 11.6324 24.5337 -48.6807 -101.55 -0.0956104 8.99632 1.27419 -3.20151e-10 8.78339e-09 1.89467e-09 -5.33906e-10 1.52231e-08 3.27504e-09 -3.2015e-10 8.78339e-09 1.89467e-09 7.73091 5.47488 0.417314 -3.20149e-10 8.78337e-09 1.89468e-09 2.90554 0.965183 0.102902 -3.20143e-10 8.78339e-09 1.89468e-09 10.2786 0.731801 0.0259123 -3.20152e-10 8.78339e-09 1.89468e-09 2.22167 -0.733487 -0.20892 2.23726e-13 2.42516e-13 -5.49199e-13 -65.5065 25.2922 -23.8539 23.2116 -50.3512 -105.69 0.0487133 6.52771 -0.920992 -7.34027e-11 -1.93133e-10 1.49137e-09 -1.26341e-10 -3.30453e-10 2.58567e-09 -7.34134e-11 -1.93126e-10 1.49139e-09 -7.73091 5.47488 -0.417314 -7.34014e-11 -1.93132e-10 1.49137e-09 -2.90554 0.965183 -0.102902 -7.34038e-11 -1.93133e-10 1.49137e-09 -10.2786 0.731801 -0.0259123 -7.33935e-11 -1.93131e-10 1.49136e-09 -2.22167 -0.733487 0.20892 -2.03217e-16 0.0 -3.88251e-19 -16.1483 -31.8233 -3.67096 -0.477645 44.9186 0.737899 -0.330071 3.6018 2.00707 2.03217e-16 0.0 3.88251e-19 14.6595 -31.5683 0.919291 0.358619 44.2155 -1.0287 -0.00889151 4.80962 -15.4449
9.5293 85.3235 -27.8845 -0.6419 -26.1441 8.1642 0.0437211 15.0592 3.20318 0.139582 -6.04882 0.848764 -6.99592 -6.64162 3.20534 -1.44203 -3.41314 9.01876 -0.0 0.0 0.0 -0.0 0.0 0.0 2.27519e-13 3.31672e-13 -6.1511e-13 66.0642 45.5565 11.0907 24.6166 -48.5623 -101.271 -0.0718751 7.78643 1.10069 -6.04024e-10 1.13291e-08 2.52366e-09 -1.01924e-09 1.96396e-08 4.36326e-09 -6.04023e-10 1.13291e-08 2.52366e-09 7.73091 5.47488 0.417314 -6.04019e-10 1.13291e-08 2.52367e-09 2.90554 0.965183 0.102902 -6.04017e-10 1.13291e-08 2.52367e-09 10.2786 0.731801 0.0259123 -6.04028e-10 1.13291e-08 2.52367e-09 2.22167 -0.733487 -0.20892 2.27496e-13 3.31672e-13 -6.15343e-13 -65.2201 25.6898 -24.3143 23.2639 -50.2913 -105.536 0.0686265 7.57186 -1.07019 -1.64892e-10 -1.29584e-10 1.8795e-09 -2.84514e-10 -2.18098e-10 3.26007e-09 -1.64905e-10 -1.29569e-10 1.87952e-09 -7.73091 5.47488 -0.417314 -1.6489e-10 -1.29581e-10 1.8795e-09 -2.90554 0.965183 -0.102902 -1.64893e-10 -1.29581e-10 1.8795e-09 -10.2786 0.731801 -0.0259123 -1.64882e-10 -1.2958e-10 1.87949e-09 -2.22167 -0.733487 0.20892 -2.03217e-16 0.0 -3.88251e-19 -16.1843 -31.1706 -3.51022 -0.520146 46.3775 0.768 -0.371848 3.5666 1.38126 2.03217e-16 0.0 3.88251e-19 14.3115 -31.558 1.08177 0.336291 43.2467 -0.978728 -0.103783 4.48697 -17.3191
8.83969 84.9855 -28.0419 -0.7827 -25.3442 7.9043 0.297314 14.9378 3.03091 0.188951 -6.03206 0.802307 -7.25904 -6.49422 2.9898 -0.853221 -3.10243 8.69613 -0.0 0.0 0.0 -0.0 0.0 0.0 2.09105e-13 3.51451e-13 -5.81992e-13 66.7287 45.1278 10.5963 24.6669 -48.4886 -101.101 -0.0585649 6.88916 0.972949 -6.98978e-10 1.1668e-08 2.62318e-09 -1.18256e-09 2.02286e-08 4.53558e-09 -6.98976e-10 1.1668e-08 2.62318e-09 7.73091 5.47488 0.417314 -6.98971e-10 1.1668e-08 2.62319e-09 2.90554 0.965183 0.102902 -6.98971e-10 1.1668e-08 2.62319e-09 10.2786 0.731801 0.0259123 -6.98984e-10 1.1668e-08 2.62319e-09 2.22167 -0.733487 -0.20892 2.09102e-13 3.51451e-13 -5.82191e-13 -64.9898 26.0849 -24.8015 23.2897 -50.2614 -105.459 0.0815989 8.12213 -1.14928 -1.68503e-10 -5.38126e-11 2.01056e-09 -2.90542e-10 -8.6333e-11 3.4877e-09 -1.68519e-10 -5.37935e-11 2.01058e-09 -7.73091 5.47488 -0.417314 -1.68501e-10 -5.38079e-11 2.01057e-09 -2.90554 0.965183 -0.102902 -1.68505e-10 -5.38083e-11 2.01057e-09 -10.2786 0.731801 -0.0259123 -1.68494e-10 -5.38082e-11 2.01055e-09 -2.22167 -0.733487 0.20892 -2.03217e-16 0.0 -3.88251e-19 -16.0942 -30.37 -3.36792 -0.552728 47.4447 0.791197 -0.438405 3.3336 0.37612 2.03217e-16 0.0 3.88251e-19 14.0631 -31.5517 1.20181 0.324238 42.6075 -0.938834 -0.210738 4.19107 -18.6607
8.15985 84.579 -28.2012 -1.0331 -24.359 7.7008 0.701718 14.7825 2.86549 0.229973 -5.97966 0.762911 -7.44675 -6.30027 2.79315 -0.335443 -2.90775 8.36823 -0.0 0.0 0.0 -0.0 0.0 0.0 1.53024e-13 2.54432e-13 -3.82313e-13 67.2802 44.5575 10.1038 24.6726 -48.4797 -101.081 -0.0520685 6.41137 0.905082 -4.80872e-10 8.33819e-09 1.84294e-09 -8.12292e-10 1.44549e-08 3.18605e-09 -4.80871e-10 8.33819e-09 1.84293e-09 7.73091 5.47488 0.417314 -4.80867e-10 8.33817e-09 1.84294e-09 2.90554 0.965183 0.102902 -4.80866e-10 8.33819e-09 1.84294e-09 10.2786 0.731801 0.0259123 -4.80879e-10 8.3382e-09 1.84294e-09 2.22167 -0.733487 -0.20892 1.53e-13 2.54431e-13 -3.825e-13 -64.8393 26.4909 -25.3296 23.2845 -50.2669 -105.474 0.0795599 7.99409 -1.13097 -1.49811e-11 4.98819e-11 1.74792e-09 -2.43825e-11 9.07832e-11 3.03085e-09 -1.49959e-11 4.98993e-11 1.74794e-09 -7.73091 5.47488 -0.417314 -1.49787e-11 4.98861e-11 1.74793e-09 -2.90554 0.965183 -0.102902 -1.49823e-11 4.98856e-11 1.74793e-09 -10.2786 0.731801 -0.0259123 -1.49724e-11 4.98861e-11 1.74791e-09 -2.22167 -0.733487 0.20892 -2.03217e-16 0.0 -3.88251e-19 -15.855 -29.3762 -3.27608 -0.57197 48.048 0.803691 -0.587267 2.90135 -1.53535 2.03217e-16 0.0 3.88251e-19 13.9044 -31.5538 1.25971 0.320602 42.31 -0.907603 -0.251575 4.11634 -19.4119
7.45294 84.1043 -28.3473 -1.3592 -23.7335 7.5401 1.21888 14.594 2.72511 0.26712 -5.90231 0.734405 -7.60213 -6.08442 2.59749 0.160747 -2.76602 8.02286 -0.0 0.0 0.0 -0.0 0.0 0.0 7.0593e-14 8.47832e-14 -5.63896e-14 67.78 43.8889 9.59052 24.648 -48.5154 -101.165 -0.0478604 6.14819 0.867624 -5.62432e-11 2.61111e-09 4.83102e-10 -9.01335e-11 4.52317e-09 8.33914e-10 -5.62423e-11 2.61111e-09 4.83096e-10 7.73091 5.47488 0.417314 -5.6241e-11 2.6111e-09 4.83103e-10 2.90554 0.965183 0.102902 -5.6237e-11 2.61111e-09 4.83105e-10 10.2786 0.731801 0.0259123 -5.62513e-11 2.61112e-09 4.83108e-10 2.22167 -0.733487 -0.20892 7.05239e-14 8.47792e-14 -5.6576e-14 -64.7432 26.9175 -25.9097 23.2568 -50.2984 -105.556 0.0683625 7.42606 -1.0496 2.63726e-10 1.48564e-10 1.20693e-09 4.58494e-10 2.57362e-10 2.09015e-09 2.63712e-10 1.48576e-10 1.20695e-09 -7.73091 5.47488 -0.417314 2.63728e-10 1.48566e-10 1.20694e-09 -2.90554 0.965183 -0.102902 2.63725e-10 1.48565e-10 1.20693e-09 -10.2786 0.731801 -0.0259123 2.63733e-10 1.48567e-10 1.20693e-09 -2.22167 -0.733487 0.20892 -2.03217e-16 0.0 -3.88251e-19 -15.4805 -28.2365 -3.19641 -0.580586 48.2972 0.807035 -0.822526 2.43563 -4.07275 2.03217e-16 0.0 3.88251e-19 13.8201 -31.5258 1.25414 0.32186 42.2224 -0.880319 -0.230796 4.21248 -19.7472
